PathFileType	3	(X/Y/Z)	C:\Users\koon_\Desktop\
DataRate	CameraRate	NumFrames	NumMarkers	Units	OrigDataRate	OrigDataStartFrame	OrigNumFrames
100.0	100.0	8	27	mm	100.0	2780	3706	
Frame#	Time	GM:LFHD			GM:RFHD			GM:LBHD			GM:RBHD			GM:C7			GM:T10			GM:CLAV			GM:STRN			GM:RBAK			GM:LSHO			GM:LUPA			GM:LELB			GM:LFRA			GM:LWRA			GM:LWRB			GM:LFIN			GM:RSHO			GM:RUPA			GM:RELB			GM:RFRA			GM:RWRA			GM:RWRB			GM:RFIN			GM:LASI			GM:RASI			GM:LPSI			GM:RPSI			
		X1	Y1	Z1	X2	Y2	Z2	X3	Y3	Z3	X4	Y4	Z4	X5	Y5	Z5	X6	Y6	Z6	X7	Y7	Z7	X8	Y8	Z8	X9	Y9	Z9	X10	Y10	Z10	X11	Y11	Z11	X12	Y12	Z12	X13	Y13	Z13	X14	Y14	Z14	X15	Y15	Z15	X16	Y16	Z16	X17	Y17	Z17	X18	Y18	Z18	X19	Y19	Z19	X20	Y20	Z20	X21	Y21	Z21	X22	Y22	Z22	X23	Y23	Z23	X24	Y24	Z24	X25	Y25	Z25	X26	Y26	Z26	X27	Y27	Z27	
2780	27.79	51.195442	1604.9159	-80.897446	-102.14354	1589.5205	-80.450317	52.376209	1591.8892	-213.53236	-110.53165	1577.9943	-195.98132	-16.7022	1421.7023	-257.46286	-3.8905098	1223.2291	-302.20221	-3.0615098	1358.4569	-101.87617	5.7561035	1212.6127	-53.069225	-99.037643	1304.5729	-305.3627	158.38557	1408.9386	-192.929	227.00023	1306.436	-184.17055	260.37515	1097.2802	-210.40005	223.94682	983.01385	-122.63091	226.00354	915.66705	-92.807152	260.98917	889.81708	-143.74779	248.73085	830.34674	-71.465637	-194.41002	1382.0476	-166.40158	-244.15869	1145.6996	-170.31184	-268.82388	1062.2802	-217.73912	-243.40146	1007.4182	-147.0569	-231.77676	879.18207	-116.87321	-249.05746	855.94366	-170.9738	-258.85501	797.22467	-106.37299	142.92218	902.22168	-88.996017	-147.94951	907.71967	-79.099724	62.617504	952.93713	-294.90958	-75.065125	943.87531	-293.20264
2781	27.8	51.635548	1604.88	-80.915558	-101.81634	1589.6099	-80.573479	52.939392	1591.8887	-213.50139	-109.70345	1578.1213	-196.0963	-16.478935	1421.5171	-257.73615	-4.0211134	1223.1151	-302.35025	-2.5669799	1358.5033	-102.17552	6.0235858	1212.7892	-53.159206	-99.139709	1304.663	-305.4147	159.0135	1407.8037	-194.14806	227.83313	1305.1754	-185.58595	260.11292	1095.6639	-210.81471	224.09723	981.82092	-122.43327	225.86475	914.54669	-92.559479	260.76926	888.4942	-143.45966	248.92233	829.48853	-70.706169	-194.07382	1382.4368	-166.23241	-244.14481	1146.0735	-170.12875	-268.87094	1062.7701	-217.49625	-243.43619	1007.7582	-146.95294	-231.78781	879.45728	-116.77155	-249.20055	856.30286	-170.98622	-258.94019	797.5365	-106.34116	142.63693	902.03516	-88.354324	-148.13689	907.73584	-79.292923	62.601753	952.97266	-294.91037	-75.120537	943.92065	-293.26105
2782	27.81	52.128151	1604.832	-80.922836	-101.37118	1589.5327	-80.733482	53.450176	1591.937	-213.56267	-109.22379	1578.196	-196.25549	-16.237679	1421.3844	-258.07123	-4.2111549	1223.0183	-302.44809	-2.0065904	1358.6195	-102.48946	6.3052435	1212.9501	-53.215759	-99.269882	1304.6926	-305.37811	159.65265	1406.6748	-195.19456	228.54852	1303.8774	-186.74026	259.84952	1094.2498	-211.31396	224.49777	980.84222	-122.10799	225.68399	913.48798	-92.710999	260.42368	887.19434	-143.2494	249.12785	828.59436	-70.165787	-193.69609	1382.6967	-165.97404	-244.17932	1146.4452	-169.89154	-268.93439	1063.1346	-217.25438	-243.47025	1008.0596	-146.73822	-231.85951	879.67401	-116.7455	-249.34486	856.59698	-170.97169	-259.03436	797.78485	-106.33515	142.28348	901.94354	-88.533554	-148.29286	907.75824	-79.371628	62.561317	953.00946	-294.88406	-75.196075	943.91876	-293.2865
2783	27.82	52.561253	1604.7521	-80.997375	-100.88615	1589.4347	-80.884422	53.922276	1592.0006	-213.63849	-108.72404	1578.228	-196.43001	-15.957693	1421.2511	-258.27554	-4.2926922	1222.9524	-302.61255	-1.4731187	1358.7432	-102.77644	6.6499352	1213.1122	-53.309734	-99.375374	1304.7474	-305.37021	160.36804	1405.6571	-195.94331	229.25949	1302.6763	-187.60535	259.5567	1092.8258	-211.72469	224.78427	979.89594	-121.89961	225.74046	912.42023	-92.524292	260.00748	885.76678	-143.14462	249.33765	827.64587	-69.669991	-193.36993	1382.9332	-165.75142	-244.1801	1146.774	-169.57138	-268.97214	1063.4352	-216.93974	-243.48898	1008.2656	-146.49719	-231.91446	879.83313	-116.65265	-249.57225	856.81567	-170.92027	-259.15955	797.97107	-106.35074	142.08572	901.9361	-88.447182	-148.43106	907.79193	-79.362885	62.483833	952.9964	-294.83499	-75.28257	943.92969	-293.33664
2784	27.83	53.02771	1604.6783	-81.088272	-100.48351	1589.3054	-80.931564	54.41571	1592.1361	-213.71997	-108.19929	1578.2705	-196.60649	-15.616296	1421.1775	-258.53271	-4.3994861	1222.8774	-302.72128	-0.98814452	1358.7999	-102.97912	6.9554148	1213.2502	-53.425751	-99.428825	1304.8666	-305.39252	161.05284	1404.7028	-196.41722	229.68414	1301.5115	-188.31256	259.22723	1091.5927	-212.12772	225.06671	978.86945	-121.69346	225.91611	911.51349	-91.974983	259.61102	884.60681	-143.07433	249.55803	826.75903	-69.339249	-193.04358	1383.1606	-165.65955	-244.19691	1147.0266	-169.36694	-269.02325	1063.703	-216.59311	-243.5459	1008.4311	-146.30171	-232.00876	879.93689	-116.60247	-249.74872	857.02588	-170.81206	-259.29028	798.09119	-106.25417	141.94696	901.88708	-88.42421	-148.60677	907.8017	-79.442001	62.41507	952.99054	-294.82767	-75.417091	943.95721	-293.38916
2785	27.84	53.456749	1604.632	-81.145798	-99.900742	1589.1437	-81.009811	54.888119	1592.2554	-213.84328	-108.03081	1578.217	-196.65509	-15.202773	1421.0889	-258.72696	-4.4293265	1222.7701	-302.76889	-0.43234918	1358.8181	-103.27592	7.2618418	1213.3855	-53.522972	-99.425217	1304.8862	-305.39798	161.57358	1403.859	-196.82526	230.05618	1300.5455	-188.61301	258.94214	1090.4916	-212.44302	225.16234	977.99243	-121.57535	226.30083	910.79956	-91.52787	259.32147	883.91901	-143.13046	249.66211	825.9566	-69.035866	-192.66745	1383.3524	-165.43102	-244.07614	1147.2408	-168.99872	-269.00049	1063.9584	-216.20828	-243.50748	1008.6188	-146.00616	-232.01366	880.0697	-116.49757	-249.95883	857.18097	-170.66801	-259.41238	798.20001	-106.19865	141.60786	901.80389	-88.607674	-148.73276	907.79401	-79.527428	62.276016	952.96588	-294.84766	-75.569725	943.93579	-293.37564
2786	27.85	53.896721	1604.5913	-81.27034	-99.645561	1589.0171	-81.323944	55.341251	1592.3297	-213.96925	-107.23531	1578.2546	-196.89311	-14.826202	1421.0116	-258.94064	-4.4511981	1222.6842	-302.98648	0.03694097	1358.8049	-103.4481	7.5273986	1213.4387	-53.601429	-99.401932	1304.9285	-305.45126	162.08284	1403.0902	-197.13818	230.14809	1299.5756	-188.63487	258.65778	1089.5463	-212.63437	225.20735	977.42688	-121.37699	225.97308	910.12225	-91.505524	258.89639	883.08093	-143.2173	249.68846	825.18793	-68.883575	-192.36612	1383.5953	-165.35669	-243.9547	1147.4617	-168.69258	-269.00912	1064.2391	-215.86954	-243.43407	1008.7954	-145.77951	-232.03259	880.18176	-116.36143	-250.14159	857.37415	-170.48169	-259.50531	798.31628	-106.1128	143.05576	902.34192	-87.078667	-148.81003	907.80054	-79.509964	62.134068	952.91315	-294.91422	-75.727829	943.9093	-293.40839
2787	27.86	54.373352	1604.5059	-81.363548	-99.235931	1588.9872	-81.42128	55.813034	1592.3969	-214.06474	-106.77906	1578.2814	-197.01555	-14.39521	1420.8794	-259.18588	-4.4513297	1222.6312	-303.09247	0.39757001	1358.7595	-103.64555	7.7442627	1213.4834	-53.6698	-99.318916	1304.9645	-305.46371	162.59215	1402.4883	-197.42075	230.2309	1298.7701	-188.43481	258.47787	1088.7614	-212.76668	225.12968	976.78882	-121.18768	225.5036	909.39319	-91.503807	258.11557	881.9317	-143.01405	249.5536	824.53278	-68.684738	-192.00502	1383.788	-165.22464	-243.71602	1147.601	-168.29285	-268.99176	1064.4791	-215.38664	-243.32088	1008.9716	-145.54062	-232.07495	880.29077	-116.26122	-250.3649	857.57648	-170.2226	-259.62683	798.51306	-105.85075	142.92986	902.2691	-87.138069	-148.91924	907.79108	-79.517998	61.969036	952.87042	-294.94577	-75.895821	943.91187	-293.38983
